<?xml version="1.0" encoding="UTF-8"?>
<svg xmlns="http://www.w3.org/2000/svg" xmlns:xlink="http://www.w3.org/1999/xlink" width="900pt" height="899.99999pt" viewBox="0 0 900 899.99999" version="1.2">
<defs>
<clipPath id="clip1">
  <path d="M 229 99.847656 L 307 99.847656 L 307 800.347656 L 229 800.347656 Z M 229 99.847656 "/>
</clipPath>
<clipPath id="clip2">
  <path d="M 329 99.847656 L 343 99.847656 L 343 800.347656 L 329 800.347656 Z M 329 99.847656 "/>
</clipPath>
<clipPath id="clip3">
  <path d="M 357 99.847656 L 664 99.847656 L 664 800.347656 L 357 800.347656 Z M 357 99.847656 "/>
</clipPath>
</defs>
<g id="surface1">
<g clip-path="url(#clip1)" clip-rule="nonzero">
<path style=" stroke:none;fill-rule:nonzero;fill:rgb(0%,0%,0%);fill-opacity:1;" d="M 306.359375 800.386719 L 229 800.386719 L 229 99.808594 L 306.359375 99.808594 L 306.359375 800.386719 "/>
</g>
<g clip-path="url(#clip2)" clip-rule="nonzero">
<path style=" stroke:none;fill-rule:nonzero;fill:rgb(0%,0%,0%);fill-opacity:1;" d="M 342.710938 800.386719 L 329.851562 800.386719 L 329.851562 99.808594 L 342.710938 99.808594 L 342.710938 800.386719 "/>
</g>
<g clip-path="url(#clip3)" clip-rule="nonzero">
<path style=" stroke:none;fill-rule:nonzero;fill:rgb(0%,0%,0%);fill-opacity:1;" d="M 657.253906 579.519531 C 647.179688 538.925781 610.636719 472.261719 517.542969 472.261719 C 464.816406 472.261719 452.433594 488.726562 432.175781 507.03125 L 419.886719 448.890625 L 432.175781 392.792969 C 452.433594 411.09375 464.816406 427.554688 517.542969 427.554688 C 613.691406 427.554688 645.144531 358.867188 655.222656 318.273438 C 668.554688 257.878906 655.222656 205.027344 655.222656 205.027344 C 651.304688 177.511719 617.277344 99.808594 498.527344 99.808594 C 409.5 99.808594 377.066406 146.734375 366.410156 170.226562 C 362.753906 176.203125 360.675781 183 360.675781 190.207031 C 360.675781 214.070312 383.300781 233.414062 411.207031 233.414062 C 439.117188 233.414062 461.742188 214.070312 461.742188 190.207031 C 461.742188 166.351562 439.117188 147.007812 411.207031 147.007812 C 405.511719 147.007812 400.035156 147.824219 394.921875 149.3125 C 410.40625 133.105469 435.414062 117.203125 473.9375 117.203125 C 552.476562 117.203125 584.042969 163.59375 594.054688 225.167969 C 594.054688 225.167969 602.824219 270.234375 594.054688 302.199219 C 584.574219 355.03125 571.484375 410.164062 492.945312 410.164062 C 454.421875 410.164062 449.902344 394.257812 434.417969 378.050781 L 400.179688 337.15625 C 400.179688 337.15625 407.640625 395.875 357.351562 448.890625 L 357.359375 448.890625 C 410.386719 503.496094 400.179688 562.667969 400.179688 562.667969 L 434.417969 521.773438 C 449.902344 505.5625 454.421875 489.65625 492.945312 489.65625 C 571.492188 489.65625 584.574219 544.792969 594.054688 597.621094 C 602.824219 629.585938 594.054688 674.652344 594.054688 674.652344 C 584.050781 736.226562 552.476562 782.617188 473.9375 782.617188 C 435.414062 782.617188 410.40625 766.710938 394.921875 750.511719 C 400.035156 751.992188 405.511719 752.8125 411.207031 752.8125 C 439.117188 752.8125 461.742188 733.472656 461.742188 709.609375 C 461.742188 685.75 439.117188 666.410156 411.207031 666.410156 C 383.300781 666.410156 360.683594 685.75 360.683594 709.609375 C 360.683594 716.820312 362.753906 723.613281 366.410156 729.585938 C 377.074219 753.078125 409.507812 800.011719 498.527344 800.011719 C 617.277344 800.011719 653.34375 720.269531 657.253906 692.757812 C 657.253906 692.757812 670.59375 639.90625 657.253906 579.519531 "/>
</g>
</g>
</svg>
