<?xml version="1.0" encoding="UTF-8"?>
<svg xmlns="http://www.w3.org/2000/svg" xmlns:xlink="http://www.w3.org/1999/xlink" width="900pt" height="899.99999pt" viewBox="0 0 900 899.99999" version="1.2">
<defs>
<clipPath id="clip1">
  <path d="M 310.726562 270 L 587 270 L 587 630 L 310.726562 630 Z M 310.726562 270 "/>
</clipPath>
</defs>
<g id="surface1">
<g clip-path="url(#clip1)" clip-rule="nonzero">
<path style=" stroke:none;fill-rule:nonzero;fill:rgb(0%,0%,0%);fill-opacity:1;" d="M 578.0625 532.976562 C 567.128906 529.042969 563.609375 540.433594 563.609375 540.433594 C 548.507812 580.464844 519.664062 603.910156 472.546875 603.910156 C 418.652344 603.910156 374.960938 543.132812 374.960938 450.160156 C 374.960938 357.191406 418.652344 291.546875 472.546875 291.546875 C 492.746094 291.546875 510.410156 297.992188 525.1875 309.554688 C 524.914062 309.550781 524.640625 309.53125 524.367188 309.53125 C 489.878906 309.53125 461.921875 337.519531 461.921875 372.042969 C 461.921875 406.566406 489.878906 434.550781 524.367188 434.550781 C 558.847656 434.550781 586.808594 406.566406 586.808594 372.042969 C 586.808594 360.019531 583.410156 348.796875 577.539062 339.269531 C 546.238281 274.125 489.027344 270.21875 472.546875 270.65625 C 383.207031 273.070312 310.726562 351.023438 310.726562 450.160156 C 310.726562 549.296875 383.171875 629.660156 472.546875 629.660156 C 523.859375 629.660156 562.671875 600.902344 582.859375 547.753906 C 582.859375 547.753906 588.996094 536.910156 578.0625 532.976562 "/>
</g>
</g>
</svg>
