<?xml version="1.0" encoding="UTF-8"?>
<svg xmlns="http://www.w3.org/2000/svg" xmlns:xlink="http://www.w3.org/1999/xlink" width="900pt" height="899.99999pt" viewBox="0 0 900 899.99999" version="1.2">
<defs>
<clipPath id="clip1">
  <path d="M 309 151.96875 L 520.503906 151.96875 L 520.503906 736 L 309 736 Z M 309 151.96875 "/>
</clipPath>
</defs>
<g id="surface1">
<g clip-path="url(#clip1)" clip-rule="nonzero">
<path style=" stroke:none;fill-rule:nonzero;fill:rgb(0%,0%,0%);fill-opacity:1;" d="M 441.480469 687.074219 C 398.113281 713.527344 352.109375 717.914062 336.371094 692.140625 C 320.621094 666.363281 344.933594 631.699219 388.300781 605.246094 C 431.664062 578.792969 477.671875 570.5625 493.417969 596.339844 C 509.160156 622.113281 484.851562 660.617188 441.480469 687.074219 Z M 510.25 151.964844 C 504.824219 151.964844 500.417969 156.359375 500.417969 161.78125 L 500.417969 576.46875 C 472.738281 546.921875 421.152344 540.566406 375.128906 563.804688 C 321.371094 590.949219 295.585938 648.164062 317.546875 691.59375 C 339.503906 735.015625 400.890625 748.214844 454.65625 721.070312 C 495.292969 700.554688 519.921875 662.859375 520.054688 626.925781 C 520.058594 626.792969 520.074219 626.671875 520.074219 626.539062 L 520.074219 161.78125 C 520.074219 156.359375 515.675781 151.964844 510.25 151.964844 "/>
</g>
<path style=" stroke:none;fill-rule:nonzero;fill:rgb(0%,0%,0%);fill-opacity:1;" d="M 590.175781 613.550781 C 589.21875 613.550781 588.269531 613.644531 587.328125 613.832031 C 586.390625 614.015625 585.480469 614.292969 584.59375 614.660156 C 583.710938 615.027344 582.871094 615.476562 582.074219 616.007812 C 581.277344 616.539062 580.539062 617.144531 579.863281 617.820312 C 579.1875 618.5 578.582031 619.234375 578.050781 620.03125 C 577.519531 620.828125 577.070312 621.667969 576.703125 622.550781 C 576.335938 623.4375 576.058594 624.347656 575.875 625.285156 C 575.6875 626.226562 575.59375 627.175781 575.59375 628.132812 C 575.59375 629.089844 575.6875 630.039062 575.875 630.976562 C 576.058594 631.914062 576.335938 632.828125 576.703125 633.710938 C 577.070312 634.597656 577.519531 635.4375 578.050781 636.234375 C 578.582031 637.027344 579.1875 637.765625 579.863281 638.441406 C 580.539062 639.117188 581.277344 639.722656 582.074219 640.253906 C 582.871094 640.789062 583.710938 641.238281 584.59375 641.601562 C 585.480469 641.96875 586.390625 642.246094 587.328125 642.433594 C 588.269531 642.621094 589.21875 642.710938 590.175781 642.710938 C 591.132812 642.710938 592.078125 642.621094 593.019531 642.433594 C 593.957031 642.246094 594.871094 641.96875 595.753906 641.601562 C 596.640625 641.238281 597.480469 640.789062 598.273438 640.253906 C 599.070312 639.722656 599.808594 639.117188 600.484375 638.441406 C 601.160156 637.765625 601.765625 637.027344 602.296875 636.234375 C 602.828125 635.4375 603.277344 634.597656 603.644531 633.710938 C 604.011719 632.828125 604.289062 631.914062 604.476562 630.976562 C 604.660156 630.039062 604.753906 629.089844 604.753906 628.132812 C 604.753906 627.175781 604.660156 626.226562 604.476562 625.285156 C 604.289062 624.347656 604.011719 623.4375 603.644531 622.550781 C 603.277344 621.667969 602.828125 620.828125 602.296875 620.03125 C 601.765625 619.234375 601.160156 618.5 600.484375 617.820312 C 599.808594 617.144531 599.070312 616.539062 598.273438 616.007812 C 597.480469 615.476562 596.640625 615.027344 595.753906 614.660156 C 594.871094 614.292969 593.957031 614.015625 593.019531 613.832031 C 592.078125 613.644531 591.132812 613.550781 590.175781 613.550781 Z M 590.175781 613.550781 "/>
</g>
</svg>
