<?xml version="1.0" encoding="UTF-8"?>
<svg xmlns="http://www.w3.org/2000/svg" xmlns:xlink="http://www.w3.org/1999/xlink" width="900pt" height="899.99999pt" viewBox="0 0 900 899.99999" version="1.2">
<defs>
<clipPath id="clip1">
  <path d="M 325 131.414062 L 508.707031 131.414062 L 508.707031 758 L 325 758 Z M 325 131.414062 "/>
</clipPath>
</defs>
<g id="surface1">
<g clip-path="url(#clip1)" clip-rule="nonzero">
<path style=" stroke:none;fill-rule:nonzero;fill:rgb(0%,0%,0%);fill-opacity:1;" d="M 508.683594 140.300781 C 508.683594 135.566406 504.84375 131.71875 500.117188 131.71875 C 495.378906 131.71875 491.539062 135.566406 491.539062 140.300781 L 491.539062 618.472656 C 467.398438 592.644531 422.402344 587.089844 382.265625 607.402344 C 335.371094 631.132812 312.882812 681.136719 332.035156 719.097656 C 351.195312 757.054688 404.734375 768.589844 451.625 744.867188 C 487.066406 726.933594 508.554688 693.984375 508.664062 662.574219 C 508.671875 662.464844 508.683594 662.351562 508.683594 662.242188 L 508.683594 140.300781 "/>
</g>
<path style=" stroke:none;fill-rule:nonzero;fill:rgb(0%,0%,0%);fill-opacity:1;" d="M 570.539062 652.9375 C 569.996094 652.9375 569.457031 652.964844 568.917969 653.015625 C 568.382812 653.070312 567.847656 653.148438 567.316406 653.253906 C 566.785156 653.359375 566.261719 653.492188 565.746094 653.648438 C 565.226562 653.804688 564.71875 653.988281 564.21875 654.195312 C 563.722656 654.402344 563.234375 654.632812 562.757812 654.886719 C 562.28125 655.140625 561.816406 655.417969 561.367188 655.71875 C 560.917969 656.019531 560.484375 656.339844 560.066406 656.683594 C 559.648438 657.027344 559.246094 657.390625 558.867188 657.773438 C 558.484375 658.152344 558.121094 658.554688 557.777344 658.972656 C 557.433594 659.390625 557.113281 659.824219 556.8125 660.273438 C 556.511719 660.722656 556.234375 661.1875 555.980469 661.664062 C 555.726562 662.140625 555.496094 662.628906 555.289062 663.125 C 555.082031 663.625 554.898438 664.132812 554.742188 664.652344 C 554.585938 665.167969 554.453125 665.691406 554.347656 666.222656 C 554.242188 666.753906 554.164062 667.289062 554.109375 667.824219 C 554.058594 668.363281 554.03125 668.902344 554.03125 669.445312 C 554.03125 669.984375 554.058594 670.523438 554.109375 671.0625 C 554.164062 671.597656 554.242188 672.132812 554.347656 672.664062 C 554.453125 673.195312 554.585938 673.71875 554.742188 674.234375 C 554.898438 674.753906 555.082031 675.261719 555.289062 675.761719 C 555.496094 676.257812 555.726562 676.746094 555.980469 677.222656 C 556.234375 677.703125 556.511719 678.164062 556.8125 678.613281 C 557.113281 679.0625 557.433594 679.496094 557.777344 679.914062 C 558.121094 680.332031 558.484375 680.734375 558.867188 681.113281 C 559.246094 681.496094 559.648438 681.859375 560.066406 682.203125 C 560.484375 682.546875 560.917969 682.867188 561.367188 683.167969 C 561.816406 683.46875 562.28125 683.746094 562.757812 684 C 563.234375 684.253906 563.722656 684.484375 564.21875 684.691406 C 564.71875 684.898438 565.226562 685.082031 565.746094 685.238281 C 566.261719 685.394531 566.785156 685.527344 567.316406 685.632812 C 567.847656 685.738281 568.382812 685.816406 568.917969 685.871094 C 569.457031 685.921875 569.996094 685.949219 570.539062 685.949219 C 571.078125 685.949219 571.617188 685.921875 572.15625 685.871094 C 572.691406 685.816406 573.226562 685.738281 573.757812 685.632812 C 574.289062 685.527344 574.8125 685.394531 575.328125 685.238281 C 575.847656 685.082031 576.355469 684.898438 576.855469 684.691406 C 577.351562 684.484375 577.839844 684.253906 578.316406 684 C 578.796875 683.746094 579.257812 683.46875 579.707031 683.167969 C 580.15625 682.867188 580.589844 682.546875 581.007812 682.203125 C 581.425781 681.859375 581.828125 681.496094 582.207031 681.113281 C 582.589844 680.734375 582.953125 680.332031 583.296875 679.914062 C 583.640625 679.496094 583.960938 679.0625 584.261719 678.613281 C 584.5625 678.164062 584.839844 677.703125 585.09375 677.222656 C 585.347656 676.746094 585.578125 676.257812 585.785156 675.761719 C 585.992188 675.261719 586.175781 674.753906 586.332031 674.234375 C 586.488281 673.71875 586.621094 673.195312 586.726562 672.664062 C 586.832031 672.132812 586.910156 671.597656 586.964844 671.0625 C 587.015625 670.523438 587.042969 669.984375 587.042969 669.445312 C 587.042969 668.902344 587.015625 668.363281 586.964844 667.824219 C 586.910156 667.289062 586.832031 666.753906 586.726562 666.222656 C 586.621094 665.691406 586.488281 665.167969 586.332031 664.652344 C 586.175781 664.132812 585.992188 663.625 585.785156 663.125 C 585.578125 662.628906 585.347656 662.140625 585.09375 661.664062 C 584.839844 661.1875 584.5625 660.722656 584.261719 660.273438 C 583.960938 659.824219 583.640625 659.390625 583.296875 658.972656 C 582.953125 658.554688 582.589844 658.152344 582.207031 657.773438 C 581.828125 657.390625 581.425781 657.027344 581.007812 656.683594 C 580.589844 656.339844 580.15625 656.019531 579.707031 655.71875 C 579.257812 655.417969 578.796875 655.140625 578.316406 654.886719 C 577.839844 654.632812 577.351562 654.402344 576.855469 654.195312 C 576.355469 653.988281 575.847656 653.804688 575.328125 653.648438 C 574.8125 653.492188 574.289062 653.359375 573.757812 653.253906 C 573.226562 653.148438 572.691406 653.070312 572.15625 653.015625 C 571.617188 652.964844 571.078125 652.9375 570.539062 652.9375 Z M 570.539062 652.9375 "/>
</g>
</svg>
