<?xml version="1.0" encoding="UTF-8"?>
<svg xmlns="http://www.w3.org/2000/svg" xmlns:xlink="http://www.w3.org/1999/xlink" width="900pt" height="899.99999pt" viewBox="0 0 900 899.99999" version="1.2">
<defs>
<clipPath id="clip1">
  <path d="M 298 223.414062 L 602 223.414062 L 602 676 L 298 676 Z M 298 223.414062 "/>
</clipPath>
</defs>
<g id="surface1">
<g clip-path="url(#clip1)" clip-rule="nonzero">
<path style=" stroke:none;fill-rule:nonzero;fill:rgb(0%,0%,0%);fill-opacity:1;" d="M 588.96875 223.277344 C 588.570312 223.296875 588.175781 223.332031 587.785156 223.390625 C 587.394531 223.457031 587.007812 223.542969 586.625 223.648438 C 585.070312 224.054688 583.65625 224.746094 582.382812 225.726562 C 581.109375 226.703125 580.078125 227.890625 579.285156 229.289062 C 578.957031 229.875 578.675781 230.488281 578.449219 231.121094 C 552.859375 299.363281 509.714844 330.492188 468.496094 345.820312 C 457.285156 349.992188 446.332031 352.835938 435.902344 354.898438 C 437.03125 353.488281 438.109375 352.039062 439.140625 350.550781 C 440.167969 349.0625 441.140625 347.542969 442.0625 345.988281 C 442.984375 344.429688 443.851562 342.847656 444.660156 341.230469 C 445.472656 339.613281 446.222656 337.96875 446.917969 336.300781 C 447.613281 334.632812 448.25 332.941406 448.824219 331.226562 C 449.402344 329.511719 449.917969 327.78125 450.371094 326.03125 C 450.824219 324.28125 451.21875 322.519531 451.546875 320.742188 C 451.878906 318.964844 452.148438 317.175781 452.351562 315.378906 C 452.558594 313.585938 452.699219 311.78125 452.777344 309.976562 C 452.855469 308.171875 452.871094 306.363281 452.824219 304.554688 C 452.777344 302.75 452.664062 300.945312 452.488281 299.144531 C 452.316406 297.347656 452.078125 295.554688 451.777344 293.773438 C 451.476562 291.992188 451.113281 290.21875 450.6875 288.464844 C 450.265625 286.707031 449.777344 284.964844 449.230469 283.242188 C 448.683594 281.519531 448.078125 279.816406 447.410156 278.136719 C 446.746094 276.457031 446.019531 274.800781 445.238281 273.171875 C 444.453125 271.542969 443.613281 269.941406 442.71875 268.371094 C 441.824219 266.800781 440.875 265.261719 439.871094 263.757812 C 438.871094 262.253906 437.816406 260.785156 436.710938 259.355469 C 435.601562 257.925781 434.449219 256.535156 433.246094 255.1875 C 432.042969 253.835938 430.792969 252.53125 429.496094 251.269531 C 428.199219 250.007812 426.863281 248.792969 425.484375 247.628906 C 424.101562 246.460938 422.683594 245.34375 421.222656 244.273438 C 419.765625 243.207031 418.269531 242.191406 416.738281 241.226562 C 415.207031 240.265625 413.648438 239.355469 412.050781 238.503906 C 410.457031 237.652344 408.835938 236.855469 407.1875 236.113281 C 405.535156 235.375 403.863281 234.695312 402.164062 234.074219 C 400.46875 233.449219 398.75 232.890625 397.011719 232.386719 C 395.273438 231.886719 393.523438 231.445312 391.753906 231.070312 C 389.984375 230.691406 388.207031 230.375 386.417969 230.121094 C 384.625 229.867188 382.828125 229.675781 381.027344 229.550781 C 379.222656 229.421875 377.417969 229.359375 375.609375 229.359375 C 374.34375 229.359375 373.078125 229.390625 371.816406 229.453125 C 370.554688 229.511719 369.292969 229.605469 368.035156 229.730469 C 366.777344 229.855469 365.523438 230.007812 364.269531 230.195312 C 363.019531 230.378906 361.773438 230.597656 360.535156 230.84375 C 359.292969 231.089844 358.0625 231.367188 356.835938 231.671875 C 355.609375 231.980469 354.390625 232.316406 353.179688 232.683594 C 351.96875 233.050781 350.769531 233.449219 349.578125 233.875 C 348.386719 234.300781 347.207031 234.753906 346.039062 235.238281 C 344.871094 235.722656 343.714844 236.234375 342.574219 236.777344 C 341.429688 237.316406 340.300781 237.882812 339.1875 238.480469 C 338.070312 239.078125 336.96875 239.699219 335.886719 240.347656 C 334.800781 241 333.734375 241.675781 332.683594 242.378906 C 331.628906 243.082031 330.597656 243.808594 329.582031 244.5625 C 328.566406 245.316406 327.570312 246.09375 326.59375 246.894531 C 325.613281 247.695312 324.65625 248.523438 323.71875 249.371094 C 322.785156 250.21875 321.867188 251.09375 320.972656 251.984375 C 320.078125 252.878906 319.207031 253.796875 318.359375 254.730469 C 317.507812 255.667969 316.683594 256.625 315.882812 257.601562 C 315.078125 258.582031 314.300781 259.578125 313.546875 260.59375 C 312.796875 261.609375 312.066406 262.640625 311.363281 263.691406 C 310.664062 264.746094 309.984375 265.8125 309.335938 266.898438 C 308.6875 267.980469 308.0625 269.082031 307.464844 270.195312 C 306.871094 271.3125 306.300781 272.441406 305.761719 273.582031 C 305.222656 274.726562 304.707031 275.882812 304.226562 277.050781 C 303.742188 278.21875 303.285156 279.398438 302.859375 280.585938 C 302.433594 281.777344 302.039062 282.976562 301.671875 284.1875 C 301.304688 285.398438 300.964844 286.617188 300.660156 287.84375 C 300.351562 289.070312 300.074219 290.300781 299.828125 291.542969 C 299.582031 292.78125 299.363281 294.027344 299.179688 295.277344 C 298.992188 296.527344 298.839844 297.785156 298.714844 299.042969 C 298.589844 300.300781 298.5 301.558594 298.4375 302.824219 C 298.375 304.085938 298.34375 305.347656 298.34375 306.613281 C 298.34375 307.878906 298.375 309.140625 298.4375 310.40625 C 298.5 311.667969 298.589844 312.929688 298.714844 314.1875 C 298.839844 315.445312 298.992188 316.699219 299.179688 317.949219 C 299.363281 319.199219 299.582031 320.445312 299.828125 321.6875 C 300.074219 322.925781 300.351562 324.160156 300.660156 325.386719 C 300.964844 326.613281 301.304688 327.828125 301.671875 329.039062 C 302.039062 330.25 302.433594 331.449219 302.859375 332.640625 C 303.285156 333.832031 303.742188 335.011719 304.226562 336.179688 C 304.707031 337.347656 305.222656 338.5 305.761719 339.644531 C 306.300781 340.789062 306.871094 341.917969 307.464844 343.03125 C 308.0625 344.148438 308.6875 345.246094 309.335938 346.332031 C 309.984375 347.414062 310.664062 348.484375 311.363281 349.535156 C 312.066406 350.585938 312.796875 351.621094 313.546875 352.636719 C 314.300781 353.652344 315.078125 354.648438 315.882812 355.625 C 316.683594 356.601562 317.507812 357.558594 318.359375 358.496094 C 319.207031 359.433594 320.078125 360.347656 320.972656 361.242188 C 321.867188 362.136719 322.785156 363.007812 323.71875 363.855469 C 324.65625 364.707031 325.613281 365.53125 326.59375 366.332031 C 327.570312 367.136719 328.566406 367.914062 329.582031 368.664062 C 330.597656 369.417969 331.628906 370.148438 332.683594 370.847656 C 333.734375 371.550781 334.800781 372.226562 335.886719 372.878906 C 336.96875 373.527344 338.070312 374.152344 339.1875 374.746094 C 340.300781 375.34375 341.429688 375.910156 342.574219 376.453125 C 343.714844 376.992188 344.871094 377.503906 346.039062 377.988281 C 347.207031 378.472656 348.386719 378.925781 349.578125 379.351562 C 350.769531 379.777344 351.96875 380.175781 353.179688 380.542969 C 354.390625 380.910156 355.609375 381.246094 356.835938 381.554688 C 358.0625 381.859375 359.292969 382.136719 360.535156 382.386719 C 361.773438 382.632812 363.019531 382.847656 364.269531 383.03125 C 365.523438 383.21875 366.777344 383.375 368.035156 383.496094 C 369.292969 383.621094 370.554688 383.714844 371.816406 383.777344 C 373.078125 383.839844 374.34375 383.871094 375.609375 383.871094 C 377.726562 383.847656 379.839844 383.738281 381.945312 383.542969 C 401.480469 383.59375 437.542969 382.695312 476.761719 368.105469 C 498.703125 359.949219 521.339844 346.84375 542.164062 327.878906 L 417.976562 659 C 417.667969 659.734375 417.4375 660.496094 417.28125 661.28125 C 417.128906 662.0625 417.050781 662.855469 417.058594 663.652344 C 417.0625 664.453125 417.144531 665.242188 417.308594 666.023438 C 417.472656 666.808594 417.714844 667.566406 418.03125 668.296875 C 418.347656 669.03125 418.734375 669.726562 419.191406 670.382812 C 419.648438 671.039062 420.164062 671.640625 420.742188 672.191406 C 421.320312 672.742188 421.949219 673.230469 422.625 673.65625 C 423.304688 674.082031 424.015625 674.433594 424.761719 674.714844 C 425.511719 674.996094 426.28125 675.199219 427.070312 675.324219 C 427.859375 675.449219 428.652344 675.496094 429.449219 675.464844 C 430.246094 675.429688 431.035156 675.316406 431.808594 675.125 C 432.585938 674.929688 433.332031 674.664062 434.054688 674.320312 C 434.777344 673.976562 435.457031 673.5625 436.09375 673.082031 C 436.734375 672.601562 437.316406 672.0625 437.847656 671.464844 C 438.375 670.867188 438.839844 670.222656 439.242188 669.53125 C 439.640625 668.839844 439.964844 668.113281 440.21875 667.355469 L 600.691406 239.480469 C 600.988281 238.734375 601.203125 237.96875 601.34375 237.179688 C 601.40625 236.796875 601.453125 236.410156 601.480469 236.019531 C 601.511719 235.617188 601.519531 235.214844 601.503906 234.8125 C 601.484375 234.023438 601.382812 233.242188 601.203125 232.46875 C 600.84375 230.90625 600.191406 229.472656 599.253906 228.175781 C 598.785156 227.527344 598.261719 226.929688 597.675781 226.386719 C 597.382812 226.125 597.082031 225.875 596.769531 225.644531 C 596.449219 225.402344 596.113281 225.179688 595.769531 224.972656 C 595.429688 224.769531 595.082031 224.582031 594.726562 224.414062 C 594.371094 224.242188 594.007812 224.085938 593.632812 223.949219 C 593.261719 223.816406 592.882812 223.699219 592.496094 223.601562 C 591.726562 223.414062 590.945312 223.304688 590.152344 223.277344 C 589.757812 223.257812 589.363281 223.257812 588.96875 223.277344 Z M 588.96875 223.277344 "/>
</g>
</g>
</svg>
