<?xml version="1.0" encoding="UTF-8"?>
<svg xmlns="http://www.w3.org/2000/svg" xmlns:xlink="http://www.w3.org/1999/xlink" width="900pt" height="899.99999pt" viewBox="0 0 900 899.99999" version="1.2">
<defs>
<clipPath id="clip1">
  <path d="M 228 185.332031 L 682.84375 185.332031 L 682.84375 706 L 228 706 Z M 228 185.332031 "/>
</clipPath>
</defs>
<g id="surface1">
<g clip-path="url(#clip1)" clip-rule="nonzero">
<path style=" stroke:none;fill-rule:nonzero;fill:rgb(0%,0%,0%);fill-opacity:1;" d="M 680.527344 233.816406 L 682.96875 185.546875 L 393.777344 185.546875 L 393.003906 203.226562 L 392.996094 203.226562 L 377.003906 569.953125 C 355.398438 547.078125 308.351562 553.863281 270.449219 585.800781 C 231.671875 618.46875 217.167969 665.070312 238.058594 689.878906 C 258.941406 714.6875 307.300781 708.3125 346.078125 675.636719 C 371.960938 653.828125 387.007812 625.820312 387.953125 602.230469 L 388.035156 602.230469 L 404.097656 233.890625 L 668.089844 233.890625 L 653.441406 569.878906 C 631.800781 547.082031 584.8125 553.898438 546.953125 585.800781 C 508.179688 618.46875 493.675781 665.070312 514.554688 689.878906 C 535.445312 714.6875 583.808594 708.3125 622.582031 675.636719 C 648.46875 653.835938 663.515625 625.828125 664.460938 602.230469 L 664.46875 602.230469 L 680.527344 233.816406 "/>
</g>
</g>
</svg>
