<?xml version="1.0" encoding="UTF-8"?>
<svg xmlns="http://www.w3.org/2000/svg" xmlns:xlink="http://www.w3.org/1999/xlink" width="900pt" height="899.99999pt" viewBox="0 0 900 899.99999" version="1.2">
<defs>
<clipPath id="clip1">
  <path d="M 276.136719 160 L 616 160 L 616 739.878906 L 276.136719 739.878906 Z M 276.136719 160 "/>
</clipPath>
</defs>
<g id="surface1">
<g clip-path="url(#clip1)" clip-rule="nonzero">
<path style=" stroke:none;fill-rule:nonzero;fill:rgb(0%,0%,0%);fill-opacity:1;" d="M 550.226562 266.679688 C 544.109375 258.589844 538.335938 250.933594 533.382812 243.675781 C 517.191406 219.949219 503.667969 194.125 500.335938 180.5 C 497.320312 168.070312 493.546875 160.164062 490.496094 160.167969 C 475.214844 160.152344 469.460938 437.660156 470.511719 606.316406 C 450.554688 587.359375 419.734375 575.175781 385.125 575.167969 C 324.945312 575.140625 276.152344 611.878906 276.136719 657.222656 C 276.128906 702.550781 324.898438 739.320312 385.066406 739.347656 C 445.253906 739.359375 494.042969 702.625 494.070312 657.285156 C 494.066406 654.933594 493.902344 652.605469 493.640625 650.308594 C 488.40625 556.960938 492.578125 400.964844 494.914062 290.667969 C 524.902344 312.507812 612 360.511719 600.75 455.9375 C 589.578125 550.625 552.066406 632.898438 558.410156 636.699219 C 564.730469 640.496094 601.292969 551.414062 613.53125 452.6875 C 624.425781 364.886719 581.546875 308.117188 550.226562 266.679688 "/>
</g>
</g>
</svg>
