<?xml version="1.0" encoding="UTF-8"?>
<svg xmlns="http://www.w3.org/2000/svg" xmlns:xlink="http://www.w3.org/1999/xlink" width="900pt" height="899.99999pt" viewBox="0 0 900 899.99999" version="1.2">
<defs>
<clipPath id="clip1">
  <path d="M 153.839844 95.320312 L 613 95.320312 L 613 804.820312 L 153.839844 804.820312 Z M 153.839844 95.320312 "/>
</clipPath>
<clipPath id="clip2">
  <path d="M 636 164 L 746.339844 164 L 746.339844 275 L 636 275 Z M 636 164 "/>
</clipPath>
<clipPath id="clip3">
  <path d="M 636 376 L 746.339844 376 L 746.339844 487 L 636 487 Z M 636 376 "/>
</clipPath>
</defs>
<g id="surface1">
<path style=" stroke:none;fill-rule:nonzero;fill:rgb(0%,0%,0%);fill-opacity:1;" d="M 359.953125 101.363281 C 216.363281 101.363281 159.984375 213.023438 159.984375 278.960938 C 159.984375 285.703125 167.953125 386.378906 259.964844 386.378906 C 314.566406 386.378906 358.867188 358.191406 358.867188 310.335938 C 358.867188 297.269531 355.476562 284.925781 349.582031 273.820312 C 342.507812 259.398438 331.296875 247.460938 317.789062 240.117188 C 301.511719 229.796875 281.570312 223.652344 259.964844 223.652344 C 251 223.652344 242.363281 224.8125 234.101562 226.734375 C 246.824219 194.378906 281.945312 130.074219 359.953125 130.074219 C 464.183594 130.074219 520.542969 206.648438 520.542969 321.496094 C 520.542969 595.890625 340.789062 669.257812 209.988281 797.945312 C 209.988281 797.945312 515.238281 606.53125 585.417969 427.847656 C 655.636719 249.1875 542.875 101.363281 359.953125 101.363281 "/>
<g clip-path="url(#clip1)" clip-rule="nonzero">
<path style=" stroke:none;fill-rule:nonzero;fill:rgb(0%,0%,0%);fill-opacity:1;" d="M 359.953125 101.363281 L 359.953125 95.261719 C 323.261719 95.261719 291.917969 102.410156 265.621094 114.28125 C 226.160156 132.085938 198.1875 160.453125 180.160156 190.667969 C 171.140625 205.785156 164.585938 221.367188 160.273438 236.40625 C 155.964844 251.449219 153.890625 265.953125 153.890625 278.960938 C 153.890625 279.65625 153.929688 280.503906 154.011719 281.722656 C 154.347656 286.214844 155.386719 295.148438 158.171875 306.203125 C 162.355469 322.746094 170.414062 344.0625 186.257812 361.597656 C 194.183594 370.347656 204.085938 378.121094 216.304688 383.660156 C 228.519531 389.199219 243.015625 392.484375 259.964844 392.484375 C 288.304688 392.46875 314.25 385.210938 333.484375 371.230469 C 343.085938 364.246094 350.996094 355.542969 356.480469 345.28125 C 361.964844 335.027344 364.980469 323.238281 364.96875 310.335938 C 364.96875 296.207031 361.292969 282.851562 354.976562 270.960938 L 349.582031 273.820312 L 355.058594 271.132812 C 347.441406 255.632812 335.40625 242.757812 320.695312 234.757812 L 317.789062 240.117188 L 321.046875 234.960938 C 303.796875 224.027344 282.730469 217.550781 259.964844 217.550781 C 250.46875 217.550781 241.359375 218.785156 232.714844 220.800781 L 234.101562 226.734375 L 239.78125 228.972656 C 245.933594 213.277344 257.605469 189.820312 276.855469 170.585938 C 286.492188 160.960938 297.988281 152.371094 311.683594 146.1875 C 325.378906 140.003906 341.289062 136.179688 359.953125 136.179688 C 385.261719 136.179688 407.4375 140.820312 426.511719 149.398438 C 455.09375 162.285156 476.890625 184.007812 491.769531 213.226562 C 506.632812 242.429688 514.445312 279.171875 514.4375 321.496094 C 514.4375 389.4375 503.332031 444.636719 484.742188 491.347656 C 456.859375 561.386719 412.054688 612.550781 361.621094 658.480469 C 311.21875 704.398438 255.210938 744.917969 205.707031 793.597656 C 203.492188 795.777344 203.269531 799.285156 205.199219 801.726562 C 207.128906 804.167969 210.59375 804.757812 213.222656 803.117188 C 213.363281 803.019531 289.847656 755.0625 375.265625 684.609375 C 417.972656 649.367188 462.914062 608.515625 501.699219 565.121094 C 540.472656 521.710938 573.117188 475.792969 591.09375 430.078125 C 605.730469 392.851562 612.601562 356.785156 612.601562 322.960938 C 612.636719 257.292969 586.585938 200.082031 541.871094 159.59375 C 497.164062 119.078125 433.972656 95.25 359.953125 95.261719 L 359.953125 107.457031 C 431.382812 107.46875 491.46875 130.386719 533.671875 168.632812 C 575.871094 206.910156 600.371094 260.511719 600.402344 322.960938 C 600.402344 355.136719 593.867188 389.664062 579.746094 425.617188 C 562.625 469.246094 530.804688 514.257812 492.601562 556.992188 C 435.3125 621.121094 363.769531 680.164062 306.609375 723.074219 C 278.023438 744.539062 253.027344 761.984375 235.195312 774.054688 C 226.28125 780.082031 219.15625 784.773438 214.261719 787.949219 C 211.816406 789.535156 209.929688 790.746094 208.664062 791.5625 C 208.027344 791.972656 207.542969 792.273438 207.21875 792.476562 C 206.898438 792.683594 206.742188 792.78125 206.742188 792.78125 L 209.988281 797.945312 L 214.261719 802.289062 C 246.671875 770.402344 282.289062 741.785156 317.589844 712.488281 C 370.519531 668.527344 422.792969 623.003906 461.902344 562.195312 C 481.441406 531.800781 497.660156 497.597656 508.953125 458.003906 C 520.253906 418.410156 526.636719 373.4375 526.636719 321.496094 C 526.636719 292.285156 523.058594 265.390625 515.957031 241.398438 C 505.308594 205.441406 486.636719 175.953125 460.300781 155.542969 C 433.980469 135.117188 400.140625 123.957031 359.953125 123.980469 C 339.605469 123.972656 321.875 128.1875 306.65625 135.066406 C 283.800781 145.394531 266.675781 161.613281 254.082031 178.25 C 241.480469 194.894531 233.34375 211.992188 228.421875 224.511719 C 227.597656 226.609375 228.007812 229.023438 229.484375 230.730469 C 230.964844 232.4375 233.285156 233.1875 235.492188 232.671875 C 243.351562 230.84375 251.523438 229.75 259.964844 229.75 C 280.410156 229.75 299.222656 235.574219 314.519531 245.265625 L 314.871094 245.46875 C 327.191406 252.160156 337.570312 263.175781 344.109375 276.507812 L 344.199219 276.679688 C 349.664062 286.992188 352.769531 298.332031 352.769531 310.335938 C 352.761719 321.359375 350.246094 331.039062 345.710938 339.53125 C 338.925781 352.242188 327.488281 362.390625 312.648438 369.425781 C 297.824219 376.453125 279.660156 380.285156 259.964844 380.285156 C 238.074219 380.261719 221.714844 374.371094 209.015625 365.542969 C 199.503906 358.910156 192.050781 350.542969 186.207031 341.539062 C 177.433594 328.058594 172.339844 313.15625 169.503906 301.199219 C 168.082031 295.226562 167.226562 289.992188 166.71875 286.0625 C 166.472656 284.101562 166.308594 282.464844 166.210938 281.230469 C 166.113281 280.015625 166.082031 279.132812 166.089844 278.960938 C 166.082031 263.339844 169.457031 244.660156 176.738281 225.566406 C 187.664062 196.910156 207.332031 167.375 237.230469 145.058594 C 267.140625 122.746094 307.289062 107.484375 359.953125 107.457031 L 359.953125 101.363281 "/>
</g>
<path style=" stroke:none;fill-rule:nonzero;fill:rgb(0%,0%,0%);fill-opacity:1;" d="M 740.1875 219.640625 C 740.1875 246.660156 718.269531 268.566406 691.261719 268.566406 C 664.238281 268.566406 642.316406 246.660156 642.316406 219.640625 C 642.316406 192.628906 664.238281 170.707031 691.261719 170.707031 C 718.269531 170.707031 740.1875 192.628906 740.1875 219.640625 "/>
<g clip-path="url(#clip2)" clip-rule="nonzero">
<path style=" stroke:none;fill-rule:nonzero;fill:rgb(0%,0%,0%);fill-opacity:1;" d="M 740.1875 219.640625 L 734.089844 219.640625 C 734.082031 231.488281 729.300781 242.152344 721.539062 249.921875 C 713.769531 257.683594 703.09375 262.464844 691.261719 262.464844 C 679.414062 262.464844 668.742188 257.683594 660.972656 249.921875 C 653.207031 242.152344 648.417969 231.488281 648.417969 219.640625 C 648.417969 207.800781 653.207031 197.132812 660.972656 189.359375 C 668.742188 181.589844 679.414062 176.8125 691.261719 176.8125 C 703.09375 176.8125 713.769531 181.589844 721.539062 189.359375 C 729.300781 197.132812 734.082031 207.800781 734.089844 219.640625 L 746.289062 219.640625 C 746.289062 204.46875 740.113281 190.667969 730.160156 180.734375 C 720.222656 170.78125 706.429688 164.605469 691.261719 164.613281 C 676.082031 164.605469 662.285156 170.78125 652.339844 180.734375 C 642.390625 190.667969 636.21875 204.46875 636.21875 219.640625 C 636.21875 234.816406 642.390625 248.613281 652.339844 258.550781 C 662.285156 268.492188 676.082031 274.671875 691.261719 274.664062 C 706.429688 274.671875 720.222656 268.492188 730.160156 258.550781 C 740.113281 248.613281 746.289062 234.816406 746.289062 219.640625 L 740.1875 219.640625 "/>
</g>
<path style=" stroke:none;fill-rule:nonzero;fill:rgb(0%,0%,0%);fill-opacity:1;" d="M 740.1875 431.867188 C 740.1875 458.886719 718.269531 480.792969 691.261719 480.792969 C 664.238281 480.792969 642.316406 458.886719 642.316406 431.867188 C 642.316406 404.855469 664.238281 382.949219 691.261719 382.949219 C 718.269531 382.949219 740.1875 404.855469 740.1875 431.867188 "/>
<g clip-path="url(#clip3)" clip-rule="nonzero">
<path style=" stroke:none;fill-rule:nonzero;fill:rgb(0%,0%,0%);fill-opacity:1;" d="M 740.1875 431.867188 L 734.089844 431.867188 C 734.082031 443.714844 729.300781 454.375 721.539062 462.144531 C 713.769531 469.910156 703.09375 474.6875 691.261719 474.6875 C 679.414062 474.6875 668.742188 469.910156 660.972656 462.144531 C 653.207031 454.375 648.417969 443.714844 648.417969 431.867188 C 648.417969 420.027344 653.207031 409.363281 660.972656 401.585938 C 668.742188 393.832031 679.414062 389.050781 691.261719 389.042969 C 703.09375 389.050781 713.769531 393.832031 721.539062 401.585938 C 729.300781 409.363281 734.082031 420.027344 734.089844 431.867188 L 746.289062 431.867188 C 746.289062 416.691406 740.113281 402.902344 730.160156 392.964844 C 720.222656 383.015625 706.429688 376.84375 691.261719 376.84375 C 676.082031 376.84375 662.285156 383.015625 652.339844 392.964844 C 642.390625 402.902344 636.21875 416.691406 636.21875 431.867188 C 636.21875 447.039062 642.390625 460.839844 652.339844 470.773438 C 662.285156 480.71875 676.082031 486.894531 691.261719 486.886719 C 706.429688 486.894531 720.222656 480.71875 730.160156 470.773438 C 740.113281 460.839844 746.289062 447.039062 746.289062 431.867188 L 740.1875 431.867188 "/>
</g>
</g>
</svg>
