<?xml version="1.0" encoding="UTF-8"?>
<svg xmlns="http://www.w3.org/2000/svg" xmlns:xlink="http://www.w3.org/1999/xlink" width="900pt" height="899.99999pt" viewBox="0 0 900 899.99999" version="1.2">
<defs>
<clipPath id="clip1">
  <path d="M 292.558594 62 L 599 62 L 599 682 L 292.558594 682 Z M 292.558594 62 "/>
</clipPath>
</defs>
<g id="surface1">
<path style=" stroke:none;fill-rule:nonzero;fill:rgb(0%,0%,0%);fill-opacity:1;" d="M 343.316406 821.367188 C 343.316406 821.367188 365.828125 829.074219 386.21875 812.777344 C 386.21875 812.777344 404.164062 800.261719 403.96875 773.441406 C 403.804688 746.636719 380.9375 728.578125 356.59375 728.746094 C 332.261719 728.910156 304.121094 752.441406 304.304688 780.417969 C 304.476562 808.394531 311.851562 861.957031 397.714844 861.386719 C 397.714844 861.386719 474.433594 862.183594 473.890625 780.664062 C 473.414062 705.386719 473.269531 682.230469 473.269531 682.230469 L 471.113281 360.449219 C 471.113281 360.449219 462.558594 366.535156 455.335938 372.414062 L 457.359375 683.6875 C 457.359375 683.6875 456.078125 762.441406 456.304688 794.773438 C 456.535156 831.164062 431.707031 846.65625 395.496094 846.894531 C 358.410156 847.144531 346.757812 828.386719 343.316406 821.367188 "/>
<path style=" stroke:none;fill-rule:nonzero;fill:rgb(0%,0%,0%);fill-opacity:1;" d="M 343.316406 821.367188 L 342.554688 823.574219 C 342.722656 823.628906 348.269531 825.527344 356.457031 825.535156 C 365.074219 825.535156 376.710938 823.382812 387.6875 814.609375 L 386.21875 812.777344 L 387.558594 814.703125 C 387.722656 814.582031 392.363281 811.328125 397.019531 804.609375 C 401.675781 797.898438 406.316406 787.667969 406.316406 773.871094 L 406.308594 773.460938 L 406.308594 773.421875 C 406.234375 759.40625 400.191406 747.5625 391.03125 739.339844 C 381.863281 731.101562 369.605469 726.398438 356.914062 726.386719 L 356.492188 726.398438 L 356.59375 728.746094 L 356.585938 726.398438 C 343.703125 726.507812 330.179688 732.648438 319.753906 742.339844 C 309.335938 752.035156 301.957031 765.402344 301.949219 780.140625 L 301.957031 780.5 L 304.304688 780.417969 L 301.957031 780.425781 C 302.058594 794.535156 303.898438 815.304688 316.792969 832.742188 C 323.238281 841.441406 332.453125 849.242188 345.390625 854.816406 C 358.335938 860.378906 374.976562 863.742188 396.378906 863.742188 C 396.828125 863.742188 397.265625 863.734375 397.714844 863.734375 L 397.816406 863.734375 L 397.753906 862.367188 L 397.78125 863.734375 L 397.816406 863.734375 L 397.753906 862.367188 L 397.78125 863.734375 L 397.800781 863.734375 C 399.414062 863.726562 418.75 863.558594 438.015625 853.183594 C 447.632812 847.996094 457.230469 840.210938 464.394531 828.605469 C 471.554688 817.011719 476.238281 801.667969 476.238281 781.527344 C 476.238281 781.234375 476.230469 780.949219 476.230469 780.664062 L 476.230469 780.65625 C 475.992188 743.007812 475.84375 718.402344 475.746094 703.195312 C 475.699219 695.605469 475.660156 690.355469 475.644531 687.007812 C 475.625 683.660156 475.617188 682.214844 475.617188 682.214844 L 473.460938 360.429688 C 473.460938 359.550781 472.964844 358.753906 472.1875 358.359375 C 471.40625 357.957031 470.472656 358.03125 469.757812 358.535156 C 469.738281 358.550781 461.15625 364.648438 453.847656 370.589844 C 453.296875 371.039062 452.976562 371.714844 452.988281 372.421875 L 455.011719 683.707031 L 457.359375 683.6875 L 455.011719 683.652344 C 455.011719 683.660156 453.929688 750.414062 453.921875 786.273438 C 453.929688 789.363281 453.929688 792.222656 453.957031 794.792969 L 453.957031 794.773438 L 453.957031 795.296875 C 453.949219 804.03125 452.457031 811.402344 449.722656 817.5625 C 445.613281 826.792969 438.765625 833.402344 429.550781 837.839844 C 420.34375 842.273438 408.746094 844.457031 395.480469 844.546875 C 395.25 844.546875 395.011719 844.546875 394.765625 844.546875 C 376.894531 844.539062 365.421875 840.027344 357.96875 834.824219 C 350.515625 829.597656 347.03125 823.613281 345.425781 820.328125 L 343.316406 821.367188 L 342.554688 823.574219 L 343.316406 821.367188 L 341.207031 822.390625 C 343.003906 826.085938 346.984375 832.871094 355.28125 838.664062 C 363.5625 844.476562 376.113281 849.242188 394.765625 849.242188 C 395.003906 849.242188 395.257812 849.242188 395.507812 849.234375 C 413.84375 849.105469 429.570312 845.171875 440.855469 836.351562 C 446.496094 831.953125 450.980469 826.324219 454.015625 819.46875 C 457.046875 812.609375 458.652344 804.5625 458.652344 795.296875 L 458.644531 794.773438 L 458.644531 794.753906 C 458.625 792.195312 458.617188 789.355469 458.617188 786.273438 C 458.617188 768.390625 458.890625 742.742188 459.167969 721.574219 C 459.296875 710.996094 459.433594 701.539062 459.535156 694.71875 C 459.644531 687.898438 459.707031 683.734375 459.707031 683.726562 L 459.707031 683.671875 L 457.671875 372.394531 L 455.335938 372.414062 L 456.808594 374.226562 C 460.378906 371.332031 464.300781 368.351562 467.328125 366.113281 C 468.847656 364.988281 470.132812 364.050781 471.039062 363.390625 C 471.957031 362.730469 472.480469 362.355469 472.480469 362.355469 L 471.113281 360.449219 L 468.765625 360.457031 L 470.921875 682.242188 C 470.921875 682.242188 471.066406 705.394531 471.542969 780.683594 L 471.542969 780.664062 C 471.542969 780.957031 471.542969 781.25 471.542969 781.527344 C 471.535156 800.941406 467.0625 815.351562 460.394531 826.140625 C 450.410156 842.320312 435.347656 850.542969 422.382812 854.742188 C 409.445312 858.941406 398.6875 859.050781 397.800781 859.042969 L 397.617188 859.050781 L 397.714844 861.386719 L 397.714844 859.042969 C 397.257812 859.042969 396.808594 859.050781 396.378906 859.050781 C 375.464844 859.050781 359.472656 855.757812 347.25 850.496094 C 328.921875 842.585938 318.964844 830.3125 313.363281 817.339844 C 307.777344 804.378906 306.707031 790.695312 306.640625 780.398438 L 306.640625 780.140625 C 306.632812 767.023438 313.269531 754.777344 322.945312 745.777344 C 332.609375 736.773438 345.234375 731.144531 356.613281 731.089844 L 356.703125 731.082031 L 356.914062 731.082031 C 368.441406 731.082031 379.625 735.382812 387.886719 742.824219 C 396.15625 750.277344 401.53125 760.78125 401.621094 773.449219 L 403.96875 773.441406 L 401.621094 773.414062 L 401.621094 773.871094 C 401.613281 786.605469 397.378906 795.828125 393.160156 801.933594 C 391.050781 804.984375 388.941406 807.238281 387.375 808.722656 C 386.59375 809.457031 385.953125 810.007812 385.511719 810.355469 C 385.292969 810.539062 385.117188 810.667969 385.007812 810.75 L 384.898438 810.832031 L 384.871094 810.851562 L 385.046875 811.097656 L 384.871094 810.851562 L 385.046875 811.097656 L 384.871094 810.851562 L 384.75 810.941406 C 374.765625 818.910156 364.332031 820.832031 356.457031 820.832031 C 352.734375 820.84375 349.597656 820.402344 347.40625 819.972656 C 346.316406 819.753906 345.464844 819.542969 344.894531 819.386719 C 344.609375 819.304688 344.398438 819.238281 344.253906 819.203125 L 344.105469 819.148438 L 344.078125 819.136719 C 343.179688 818.835938 342.191406 819.09375 341.558594 819.808594 C 340.925781 820.511719 340.785156 821.53125 341.207031 822.390625 L 343.316406 821.367188 "/>
<path style=" stroke:none;fill-rule:nonzero;fill:rgb(0%,0%,0%);fill-opacity:1;" d="M 418.246094 618.707031 C 418.246094 618.707031 376.847656 596.851562 376.519531 543.960938 C 376.179688 491.039062 420.464844 446.214844 475.148438 445.847656 C 529.804688 445.488281 573.953125 503.425781 574.355469 564.796875 C 574.757812 626.140625 515.949219 678.8125 452.675781 679.234375 C 389.4375 679.648438 295.722656 649.644531 294.960938 533.546875 C 294.191406 417.429688 368.019531 352.363281 439.28125 310.914062 C 510.550781 269.449219 542.804688 228.28125 558.347656 198.453125 C 573.898438 168.644531 580.949219 119.125 545.703125 130.464844 C 510.484375 141.832031 457.554688 216.558594 473.480469 287.289062 L 473.792969 288.839844 L 457.738281 299.636719 C 457.738281 299.636719 432.953125 180.84375 510.777344 84.0625 C 510.777344 84.0625 561.878906 36.320312 584.707031 91.9375 C 607.492188 147.523438 598.597656 257.761719 524.515625 322.023438 C 524.515625 322.023438 451.050781 376.363281 399.128906 413.414062 C 352.699219 446.5625 319.5625 516.128906 320.917969 546.589844 C 322.273438 577.035156 342.59375 666.757812 459.121094 665.996094 C 459.121094 665.996094 534.964844 661.671875 534.371094 570.488281 C 534.371094 570.488281 526.246094 501.195312 469.132812 501.5625 C 412.019531 501.949219 400.007812 536.019531 400.183594 563.109375 C 400.183594 563.109375 400.707031 586.109375 425.148438 606.054688 C 425.148438 606.054688 432.832031 610.859375 429.828125 616.78125 C 426.984375 622.335938 421.730469 619.816406 418.246094 618.707031 "/>
<g clip-path="url(#clip1)" clip-rule="nonzero">
<path style=" stroke:none;fill-rule:nonzero;fill:rgb(0%,0%,0%);fill-opacity:1;" d="M 418.246094 618.707031 L 419.335938 616.625 L 419.328125 616.625 C 418.871094 616.378906 408.765625 610.851562 398.808594 599.078125 C 388.851562 587.292969 379.03125 569.359375 378.855469 543.941406 L 378.855469 543.363281 C 378.839844 492.039062 421.976562 448.535156 475.167969 448.195312 L 475.652344 448.183594 C 502.003906 448.183594 525.933594 462.171875 543.429688 483.851562 C 560.914062 505.503906 571.816406 534.773438 572.007812 564.8125 L 572.007812 565.417969 C 572.007812 595.183594 557.707031 622.941406 535.5625 643.347656 C 513.4375 663.742188 483.527344 676.6875 452.65625 676.886719 C 452.246094 676.886719 451.832031 676.886719 451.410156 676.886719 C 420.164062 676.898438 381.671875 669.351562 351.121094 647.726562 C 335.835938 636.910156 322.511719 622.601562 312.921875 603.902344 C 303.351562 585.191406 297.5 562.054688 297.308594 533.539062 C 297.308594 532.933594 297.296875 532.335938 297.296875 531.75 C 297.316406 474.757812 315.453125 430.4375 342.402344 395.089844 C 369.347656 359.761719 405.171875 333.460938 440.460938 312.9375 C 512.054688 271.300781 544.683594 229.777344 560.429688 199.542969 C 567.917969 185.132812 573.457031 166.5 573.476562 151.546875 C 573.464844 144.765625 572.347656 138.675781 569.414062 134.019531 C 567.945312 131.710938 565.992188 129.777344 563.554688 128.464844 C 561.125 127.136719 558.246094 126.457031 555.019531 126.457031 C 552.011719 126.457031 548.671875 127.042969 544.980469 128.234375 C 536.808594 130.886719 528.042969 136.585938 519.378906 144.582031 C 506.386719 156.570312 493.640625 173.769531 484.097656 193.878906 C 474.550781 213.972656 468.214844 236.992188 468.214844 260.585938 C 468.214844 269.617188 469.144531 278.738281 471.1875 287.804688 L 473.480469 287.289062 L 471.179688 287.757812 L 471.179688 287.765625 L 456.425781 297.683594 L 457.738281 299.636719 L 460.039062 299.152344 L 460 298.96875 C 459.605469 297.007812 456.332031 279.71875 456.332031 253.96875 C 456.332031 210.839844 465.519531 144.066406 512.601562 85.527344 L 510.777344 84.0625 L 512.382812 85.777344 L 512.429688 85.738281 C 512.960938 85.242188 518.113281 80.578125 525.523438 76.085938 C 532.929688 71.585938 542.605469 67.324219 551.964844 67.339844 C 557.605469 67.351562 563.125 68.816406 568.324219 72.667969 C 573.523438 76.527344 578.445312 82.871094 582.535156 92.824219 C 589.429688 109.636719 593.417969 131.773438 593.417969 156.167969 C 593.425781 210.738281 573.503906 276.445312 522.984375 320.242188 L 524.515625 322.023438 L 523.121094 320.132812 C 523.121094 320.132812 521.972656 320.976562 519.863281 322.535156 C 505.101562 333.445312 443.175781 379.105469 397.773438 411.507812 C 374.609375 428.046875 354.898438 453.28125 340.886719 478.363281 C 333.882812 490.902344 328.308594 503.414062 324.476562 514.820312 C 320.644531 526.222656 318.535156 536.5 318.523438 544.738281 C 318.523438 545.398438 318.542969 546.058594 318.570312 546.710938 L 318.570312 546.699219 C 319.277344 562.230469 324.703125 592.460938 344.703125 619.074219 C 354.707031 632.363281 368.367188 644.722656 386.832031 653.714844 C 405.300781 662.714844 428.542969 668.351562 457.644531 668.351562 C 458.140625 668.34375 458.625 668.34375 459.121094 668.34375 L 459.25 668.34375 C 459.480469 668.316406 478.660156 667.234375 498.035156 654.546875 C 507.714844 648.195312 517.425781 638.910156 524.6875 625.453125 C 531.941406 611.996094 536.726562 594.40625 536.726562 571.542969 C 536.726562 571.183594 536.71875 570.828125 536.71875 570.488281 L 536.707031 570.214844 C 536.679688 570.058594 534.644531 552.605469 525.320312 534.929688 C 520.644531 526.09375 514.125 517.183594 505.03125 510.445312 C 495.933594 503.707031 484.234375 499.207031 469.59375 499.214844 L 469.078125 499.214844 L 469.132812 501.5625 L 469.113281 499.214844 C 454.710938 499.316406 443.019531 501.519531 433.566406 505.277344 C 419.382812 510.886719 410.324219 520.0625 404.960938 530.394531 C 399.585938 540.722656 397.835938 552.144531 397.835938 562.523438 C 397.835938 562.707031 397.828125 562.917969 397.835938 563.15625 C 397.84375 563.355469 398 569.378906 401.3125 577.941406 C 404.621094 586.511719 411.101562 597.621094 423.675781 607.871094 L 423.914062 608.046875 L 424.222656 607.550781 L 423.902344 608.046875 L 423.914062 608.046875 L 424.222656 607.550781 L 423.902344 608.046875 C 423.957031 608.074219 425.160156 608.859375 426.242188 610.035156 C 426.792969 610.621094 427.296875 611.289062 427.644531 611.96875 C 427.992188 612.65625 428.175781 613.324219 428.175781 613.976562 C 428.175781 614.507812 428.066406 615.058594 427.734375 615.726562 L 427.746094 615.707031 C 427.214844 616.726562 426.699219 617.210938 426.230469 617.496094 C 425.753906 617.769531 425.242188 617.890625 424.554688 617.898438 C 423.800781 617.898438 422.875 617.726562 421.914062 617.441406 C 420.941406 617.15625 419.941406 616.78125 418.953125 616.46875 L 418.246094 618.707031 L 419.335938 616.625 L 418.246094 618.707031 L 417.53125 620.941406 C 418.355469 621.199219 419.417969 621.59375 420.601562 621.941406 C 421.785156 622.289062 423.105469 622.59375 424.554688 622.59375 C 425.867188 622.59375 427.304688 622.316406 428.632812 621.53125 C 429.964844 620.742188 431.089844 619.484375 431.917969 617.84375 L 431.925781 617.835938 C 432.566406 616.5625 432.878906 615.230469 432.871094 613.976562 C 432.871094 612.371094 432.402344 610.933594 431.761719 609.722656 C 430.796875 607.90625 429.476562 606.550781 428.40625 605.597656 C 427.324219 604.652344 426.480469 604.113281 426.398438 604.066406 L 425.148438 606.054688 L 426.636719 604.242188 C 414.753906 594.53125 408.757812 584.175781 405.683594 576.253906 C 404.164062 572.292969 403.363281 568.9375 402.960938 566.601562 C 402.75 565.4375 402.648438 564.519531 402.59375 563.914062 C 402.558594 563.613281 402.546875 563.382812 402.539062 563.238281 L 402.53125 563.082031 L 402.53125 562.523438 C 402.519531 549.359375 405.527344 534.8125 415.175781 523.589844 C 419.996094 517.972656 426.507812 513.132812 435.300781 509.640625 C 444.09375 506.136719 455.195312 504 469.152344 503.910156 L 469.59375 503.910156 C 483.28125 503.917969 493.863281 508.035156 502.234375 514.222656 C 514.777344 523.480469 522.304688 537.605469 526.621094 549.476562 C 528.777344 555.410156 530.144531 560.761719 530.960938 564.613281 C 531.363281 566.539062 531.636719 568.097656 531.8125 569.160156 C 531.894531 569.691406 531.949219 570.09375 531.996094 570.371094 L 532.03125 570.671875 L 532.042969 570.761719 L 534.371094 570.488281 L 532.023438 570.488281 C 532.023438 570.847656 532.03125 571.203125 532.03125 571.542969 C 532.023438 593.761719 527.402344 610.519531 520.550781 623.226562 C 510.273438 642.273438 494.917969 652.347656 482.023438 657.71875 C 475.589844 660.40625 469.785156 661.890625 465.613281 662.707031 C 463.523438 663.109375 461.84375 663.347656 460.699219 663.484375 C 460.128906 663.558594 459.679688 663.597656 459.394531 663.625 L 459.066406 663.652344 L 458.984375 663.660156 L 459.121094 665.996094 L 459.113281 663.652344 C 458.609375 663.652344 458.121094 663.660156 457.644531 663.660156 C 429.136719 663.652344 406.65625 658.152344 388.886719 649.496094 C 362.261719 636.515625 346.152344 616.414062 336.503906 596.667969 C 326.859375 576.933594 323.75 557.5625 323.265625 546.488281 L 323.265625 546.472656 C 323.226562 545.921875 323.21875 545.34375 323.21875 544.738281 C 323.21875 537.304688 325.199219 527.386719 328.921875 516.3125 C 334.515625 499.683594 344.003906 480.398438 356.308594 462.300781 C 368.613281 444.199219 383.734375 427.285156 400.496094 415.320312 C 452.445312 378.25 525.90625 323.910156 525.917969 323.902344 L 526.054688 323.792969 C 577.886719 278.792969 598.101562 211.808594 598.113281 156.167969 C 598.101562 131.261719 594.070312 108.589844 586.878906 91.046875 C 582.5625 80.523438 577.171875 73.390625 571.121094 68.898438 C 565.085938 64.398438 558.429688 62.636719 551.964844 62.648438 C 540.84375 62.667969 530.246094 67.652344 522.339844 72.53125 C 514.445312 77.425781 509.246094 82.273438 509.175781 82.347656 L 508.945312 82.585938 C 460.945312 142.296875 451.640625 210.207031 451.640625 253.96875 C 451.640625 281.863281 455.417969 299.996094 455.445312 300.113281 C 455.601562 300.882812 456.132812 301.507812 456.855469 301.808594 C 457.582031 302.101562 458.398438 302.019531 459.046875 301.582031 L 475.101562 290.78125 C 475.890625 290.25 476.285156 289.296875 476.09375 288.371094 L 475.78125 286.820312 L 475.773438 286.765625 C 473.808594 278.066406 472.910156 269.296875 472.910156 260.585938 C 472.902344 230.253906 483.820312 200.582031 498.566406 177.332031 C 505.929688 165.71875 514.246094 155.699219 522.5625 148.027344 C 530.867188 140.34375 539.203125 135.019531 546.417969 132.699219 C 549.753906 131.628906 552.617188 131.152344 555.019531 131.152344 C 557.605469 131.152344 559.648438 131.683594 561.328125 132.589844 C 563.820312 133.945312 565.644531 136.21875 566.910156 139.464844 C 568.167969 142.703125 568.789062 146.855469 568.78125 151.546875 C 568.808594 165.351562 563.453125 183.632812 556.265625 197.371094 C 540.933594 226.789062 509.054688 267.589844 438.097656 308.878906 C 402.503906 329.59375 366.15625 356.214844 338.667969 392.25 C 311.171875 428.265625 292.59375 473.75 292.605469 531.75 C 292.605469 532.355469 292.613281 532.960938 292.613281 533.566406 C 292.804688 562.707031 298.800781 586.613281 308.75 606.039062 C 323.667969 635.179688 347.445312 654.117188 373.375 665.695312 C 399.3125 677.273438 427.425781 681.582031 451.410156 681.582031 C 451.832031 681.582031 452.253906 681.582031 452.683594 681.582031 C 484.867188 681.351562 515.804688 667.933594 538.742188 646.792969 C 561.683594 625.664062 576.695312 596.722656 576.703125 565.417969 C 576.703125 565.207031 576.703125 564.996094 576.695312 564.785156 C 576.484375 533.628906 565.25 503.425781 547.085938 480.902344 C 528.933594 458.398438 503.726562 443.5 475.652344 443.492188 L 475.128906 443.5 C 419.363281 443.886719 374.179688 489.371094 374.160156 543.363281 C 374.160156 543.574219 374.160156 543.785156 374.171875 543.988281 L 374.171875 543.96875 C 374.328125 571.046875 385.0625 590.324219 395.726562 602.699219 C 406.390625 615.085938 416.972656 620.6875 417.144531 620.777344 L 417.53125 620.941406 L 418.246094 618.707031 "/>
</g>
</g>
</svg>
