<?xml version="1.0" encoding="UTF-8"?>
<svg xmlns="http://www.w3.org/2000/svg" xmlns:xlink="http://www.w3.org/1999/xlink" width="900pt" height="899.99999pt" viewBox="0 0 900 899.99999" version="1.2">
<defs>
<clipPath id="clip1">
  <path d="M 121 147 L 843.449219 147 L 843.449219 829.167969 L 121 829.167969 Z M 121 147 "/>
</clipPath>
<clipPath id="clip2">
  <path d="M 56.148438 152 L 102 152 L 102 828 L 56.148438 828 Z M 56.148438 152 "/>
</clipPath>
</defs>
<g id="surface1">
<g clip-path="url(#clip1)" clip-rule="nonzero">
<path style=" stroke:none;fill-rule:nonzero;fill:rgb(0%,0%,0%);fill-opacity:1;" d="M 843.449219 151.859375 L 843.449219 147.769531 L 121.578125 147.769531 L 121.578125 829.230469 L 843.449219 829.230469 L 843.449219 825.140625 L 125.664062 825.140625 L 125.664062 783.222656 L 843.449219 783.222656 L 843.449219 779.140625 L 125.664062 779.140625 L 125.664062 737.226562 L 843.449219 737.226562 L 843.449219 733.136719 L 125.664062 733.136719 L 125.664062 691.226562 L 843.449219 691.226562 L 843.449219 687.132812 L 125.664062 687.132812 L 125.664062 645.214844 L 843.449219 645.214844 L 843.449219 641.132812 L 125.664062 641.132812 L 125.664062 335.871094 L 843.449219 335.871094 L 843.449219 331.785156 L 125.664062 331.785156 L 125.664062 289.867188 L 843.449219 289.867188 L 843.449219 285.785156 L 125.664062 285.785156 L 125.664062 243.867188 L 843.449219 243.867188 L 843.449219 239.78125 L 125.664062 239.78125 L 125.664062 197.863281 L 843.449219 197.863281 L 843.449219 193.773438 L 125.664062 193.773438 L 125.664062 151.859375 L 843.449219 151.859375 "/>
</g>
<g clip-path="url(#clip2)" clip-rule="nonzero">
<path style=" stroke:none;fill-rule:nonzero;fill:rgb(0%,0%,0%);fill-opacity:1;" d="M 64.710938 490.105469 C 64.710938 490.105469 104.210938 464.542969 101.152344 410.359375 C 98.085938 356.179688 75.953125 292.800781 80.378906 246.117188 C 84.808594 199.433594 92.769531 181.03125 100.089844 166.378906 L 99.992188 152.203125 C 99.992188 152.203125 59.4375 216.808594 59.945312 279.167969 C 60.457031 341.527344 82.421875 367.769531 87.53125 396.390625 C 92.632812 425.015625 92.632812 461.136719 56.199219 490.105469 C 92.632812 519.070312 92.632812 555.1875 87.53125 583.8125 C 82.421875 612.433594 60.457031 638.675781 59.945312 701.035156 C 59.4375 763.394531 99.992188 828 99.992188 828 L 100.089844 813.824219 C 92.769531 799.167969 84.808594 780.773438 80.378906 734.085938 C 75.953125 687.402344 98.085938 624.019531 101.152344 569.835938 C 104.210938 515.660156 64.710938 490.105469 64.710938 490.105469 "/>
</g>
<path style=" stroke:none;fill-rule:nonzero;fill:rgb(0%,0%,0%);fill-opacity:1;" d="M 306.714844 667.382812 C 306.714844 673.132812 302.0625 677.789062 296.320312 677.789062 C 290.578125 677.789062 285.925781 673.132812 285.925781 667.382812 C 285.925781 661.636719 290.578125 656.980469 296.320312 656.980469 C 302.0625 656.980469 306.714844 661.636719 306.714844 667.382812 "/>
<path style=" stroke:none;fill-rule:nonzero;fill:rgb(0%,0%,0%);fill-opacity:1;" d="M 306.714844 715.460938 C 306.714844 721.203125 302.0625 725.859375 296.320312 725.859375 C 290.578125 725.859375 285.925781 721.203125 285.925781 715.460938 C 285.925781 709.710938 290.578125 705.054688 296.320312 705.054688 C 302.0625 705.054688 306.714844 709.710938 306.714844 715.460938 "/>
<path style=" stroke:none;fill-rule:nonzero;fill:rgb(0%,0%,0%);fill-opacity:1;" d="M 248.402344 648.023438 C 235.703125 641.78125 194.292969 638.148438 183.734375 668.5625 C 176.878906 688.3125 183.160156 699.679688 188.398438 705.222656 C 189.808594 706.839844 191.484375 708.222656 193.359375 709.289062 C 193.480469 709.359375 193.691406 709.476562 193.722656 709.496094 C 193.738281 709.507812 193.753906 709.511719 193.753906 709.511719 C 196.425781 710.945312 199.488281 711.761719 202.734375 711.761719 C 213.226562 711.761719 221.734375 703.257812 221.734375 692.75 C 221.734375 682.25 213.226562 673.738281 202.734375 673.738281 C 200.613281 673.738281 198.355469 674.480469 196.261719 674.816406 C 194.941406 675.023438 193.625 675.246094 192.289062 675.355469 C 189.691406 675.566406 189.769531 673.703125 190.074219 671.480469 C 190.308594 669.765625 190.816406 668.023438 191.632812 666.492188 C 204.625 644.484375 229.476562 648.023438 235.605469 652.6875 C 241.738281 657.351562 259.328125 671.492188 246.265625 728.304688 C 233.210938 785.121094 172.238281 798.917969 172.238281 798.917969 L 173.4375 801.921875 C 208.023438 798.71875 261.394531 770.511719 274.988281 720.90625 C 288.578125 671.292969 261.089844 654.25 248.402344 648.023438 "/>
<path style=" stroke:none;fill-rule:nonzero;fill:rgb(0%,0%,0%);fill-opacity:1;" d="M 261.929688 327.128906 L 251.125 260.851562 C 263.859375 259.914062 276.796875 265.0625 280.953125 278.546875 C 290.507812 309.539062 275.425781 322.003906 261.929688 327.128906 Z M 253.902344 329.476562 C 239.78125 332.546875 204.203125 328.96875 188.886719 297.792969 C 173.5625 266.621094 203.007812 230.679688 223.605469 214.835938 C 227.882812 211.546875 232.523438 208.101562 237.257812 204.371094 L 242.582031 237.011719 C 234.269531 238.839844 226.511719 243.5 220.542969 251.628906 C 192.289062 290.132812 234.292969 313.46875 234.292969 313.46875 L 235.519531 310.910156 C 208.394531 285.285156 225.726562 265.363281 246.5625 261.445312 L 257.511719 328.582031 C 256.257812 328.933594 255.050781 329.234375 253.902344 329.476562 Z M 266.679688 101.898438 C 277.246094 114.503906 276.203125 131.195312 251.179688 157.773438 C 246.859375 162.363281 241.847656 166.738281 236.492188 171.097656 L 236.292969 170.207031 C 228.722656 128.472656 256.117188 89.296875 266.679688 101.898438 Z M 247.121094 236.300781 L 241.371094 201.050781 C 258.164062 187.238281 275.042969 169.273438 279.78125 141.074219 C 286.246094 102.578125 263.953125 74.984375 261.738281 73.109375 C 259.519531 71.238281 250.5 70.894531 236.292969 98.832031 C 222.390625 126.175781 231.863281 171.257812 231.863281 171.257812 L 232.371094 174.398438 C 207.382812 194.160156 177 214.496094 172.796875 253.332031 C 167.4375 302.90625 202.328125 324.027344 202.328125 324.027344 C 208.890625 328.980469 234.539062 339.5625 258.378906 333.894531 L 263.515625 365.410156 C 264.386719 371.457031 265.675781 388.519531 261.226562 394.75 C 255.433594 402.863281 246.636719 410.445312 233.960938 410.445312 C 230.84375 410.445312 227.484375 409.976562 223.882812 408.949219 C 216.066406 406.371094 213.992188 403.328125 213.992188 403.328125 C 222.078125 402.640625 228.355469 396.253906 228.355469 396.253906 L 228.351562 396.253906 C 232.226562 392.8125 234.671875 387.804688 234.671875 382.214844 C 234.671875 371.871094 226.289062 363.484375 215.953125 363.484375 C 208 363.484375 201.210938 368.441406 198.492188 375.433594 C 198.492188 375.441406 198.488281 375.445312 198.488281 375.445312 C 189.707031 392.121094 204.648438 404.824219 204.648438 404.824219 C 215.007812 411.59375 224.78125 414.992188 233.855469 414.992188 C 237.902344 414.992188 241.808594 414.3125 245.558594 412.964844 C 252.992188 410.28125 259.519531 405.050781 264.96875 397.417969 C 271.390625 388.425781 268.203125 365.714844 268.054688 364.710938 L 262.828125 332.644531 C 275.074219 328.585938 286.46875 319.761719 294.078125 303.078125 C 311.460938 264.964844 277.222656 233.386719 247.121094 236.300781 "/>
</g>
</svg>
