<?xml version="1.0" encoding="UTF-8"?>
<svg xmlns="http://www.w3.org/2000/svg" xmlns:xlink="http://www.w3.org/1999/xlink" width="900pt" height="899.99999pt" viewBox="0 0 900 899.99999" version="1.2">
<defs>
<clipPath id="clip1">
  <path d="M 346 134.445312 L 569 134.445312 L 569 752 L 346 752 Z M 346 134.445312 "/>
</clipPath>
</defs>
<g id="surface1">
<g clip-path="url(#clip1)" clip-rule="nonzero">
<path style=" stroke:none;fill-rule:nonzero;fill:rgb(0%,0%,0%);fill-opacity:1;" d="M 485.707031 700.484375 C 439.792969 728.46875 391.085938 733.113281 374.421875 705.847656 C 357.75 678.578125 383.488281 641.910156 429.40625 613.929688 C 475.3125 585.945312 524.027344 577.238281 540.699219 604.507812 C 557.363281 631.773438 531.628906 672.503906 485.707031 700.484375 Z M 558.519531 134.441406 C 552.773438 134.441406 548.109375 139.089844 548.109375 144.824219 L 548.109375 583.488281 C 518.800781 552.234375 464.1875 545.511719 415.457031 570.089844 C 358.539062 598.804688 331.242188 659.328125 354.492188 705.265625 C 377.738281 751.199219 442.734375 765.164062 499.65625 736.449219 C 542.683594 714.746094 568.761719 674.871094 568.898438 636.863281 C 568.90625 636.722656 568.917969 636.589844 568.917969 636.453125 L 568.917969 144.824219 C 568.917969 139.089844 564.261719 134.441406 558.519531 134.441406 "/>
</g>
</g>
</svg>
