<?xml version="1.0" encoding="UTF-8"?>
<svg xmlns="http://www.w3.org/2000/svg" xmlns:xlink="http://www.w3.org/1999/xlink" width="900pt" height="899.99999pt" viewBox="0 0 900 899.99999" version="1.2">
<defs>
<clipPath id="clip1">
  <path d="M 177.445312 345.398438 L 722.695312 345.398438 L 722.695312 554.648438 L 177.445312 554.648438 Z M 177.445312 345.398438 "/>
</clipPath>
</defs>
<g id="surface1">
<g clip-path="url(#clip1)" clip-rule="nonzero">
<path style=" stroke:none;fill-rule:nonzero;fill:rgb(0%,0%,0%);fill-opacity:1;" d="M 334.417969 436.390625 L 334.417969 354.027344 C 334.417969 349.320312 338.234375 345.507812 342.9375 345.507812 L 557.207031 345.507812 C 561.914062 345.507812 565.726562 349.320312 565.726562 354.027344 L 565.726562 445.476562 L 714.191406 445.476562 C 718.902344 445.476562 722.710938 449.289062 722.710938 453.996094 L 722.710938 546.019531 C 722.710938 550.722656 718.902344 554.539062 714.191406 554.539062 L 185.953125 554.539062 C 181.242188 554.539062 177.429688 550.722656 177.429688 546.019531 L 177.429688 453.996094 C 177.429688 449.289062 181.242188 445.476562 185.953125 445.476562 L 325.125 445.476562 C 325.125 445.476562 334.417969 443.351562 334.417969 436.390625 "/>
</g>
</g>
</svg>
