<?xml version="1.0" encoding="UTF-8"?>
<svg xmlns="http://www.w3.org/2000/svg" xmlns:xlink="http://www.w3.org/1999/xlink" width="900pt" height="899.99999pt" viewBox="0 0 900 899.99999" version="1.2">
<defs>
<clipPath id="clip1">
  <path d="M 362 166.601562 L 555 166.601562 L 555 733.601562 L 362 733.601562 Z M 362 166.601562 "/>
</clipPath>
</defs>
<g id="surface1">
<g clip-path="url(#clip1)" clip-rule="nonzero">
<path style=" stroke:none;fill-rule:nonzero;fill:rgb(0%,0%,0%);fill-opacity:1;" d="M 379.527344 166.625 C 376.628906 166.808594 373.800781 168.097656 371.742188 170.457031 C 367.621094 175.167969 368.058594 182.335938 372.757812 186.476562 L 427.003906 234.226562 C 427.707031 234.859375 429.574219 237.140625 429.855469 237.546875 C 437.398438 248.542969 433.703125 273.203125 426.714844 281.597656 L 372.714844 359.898438 C 372.523438 360.160156 372.363281 360.421875 372.207031 360.695312 C 343.84375 410.28125 383.003906 433.980469 395.402344 441.480469 L 406.679688 449.078125 L 481.183594 502.652344 C 454.996094 500.613281 426.332031 502.875 404.601562 516.65625 C 388.027344 527.183594 377.605469 542.910156 373.664062 563.363281 C 353.851562 665.914062 531.910156 730.449219 539.496094 733.148438 C 540.730469 733.601562 542.019531 733.8125 543.277344 733.8125 C 547.375 733.8125 551.292969 731.578125 553.296875 727.765625 C 555.910156 722.773438 554.484375 716.609375 549.933594 713.296875 C 513.65625 686.933594 457.214844 629.039062 475.898438 579.269531 C 493.128906 533.316406 528.988281 538.851562 532.949219 539.65625 C 533.15625 539.699219 533.488281 539.910156 533.679688 539.941406 C 535.105469 540.554688 536.574219 540.984375 538.082031 540.984375 C 541.613281 540.984375 545.074219 539.328125 547.28125 536.242188 C 550.925781 531.160156 549.765625 524.066406 544.691406 520.402344 L 455.488281 456.300781 C 454.683594 455.542969 453.605469 454.089844 453.230469 453.53125 C 441.195312 435.789062 460.019531 407.195312 470.921875 390.984375 L 530.121094 309.378906 C 532.792969 305.695312 532.878906 300.929688 530.761719 297.148438 C 530.117188 295.5625 529.210938 294.054688 527.84375 292.851562 L 387.707031 169.417969 C 385.375 167.351562 382.421875 166.441406 379.527344 166.625 Z M 379.527344 166.625 "/>
</g>
</g>
</svg>
