<?xml version="1.0" encoding="UTF-8"?>
<svg xmlns="http://www.w3.org/2000/svg" xmlns:xlink="http://www.w3.org/1999/xlink" width="900pt" height="899.99999pt" viewBox="0 0 900 899.99999" version="1.2">
<defs>
<clipPath id="clip1">
  <path d="M 364 131.414062 L 547.785156 131.414062 L 547.785156 758 L 364 758 Z M 364 131.414062 "/>
</clipPath>
</defs>
<g id="surface1">
<g clip-path="url(#clip1)" clip-rule="nonzero">
<path style=" stroke:none;fill-rule:nonzero;fill:rgb(0%,0%,0%);fill-opacity:1;" d="M 547.761719 140.300781 C 547.761719 135.566406 543.921875 131.71875 539.191406 131.71875 C 534.457031 131.71875 530.617188 135.566406 530.617188 140.300781 L 530.617188 618.472656 C 506.476562 592.644531 461.480469 587.089844 421.34375 607.402344 C 374.449219 631.132812 351.960938 681.136719 371.113281 719.097656 C 390.273438 757.054688 443.8125 768.589844 490.703125 744.867188 C 526.144531 726.933594 547.632812 693.984375 547.742188 662.574219 C 547.75 662.464844 547.761719 662.351562 547.761719 662.242188 L 547.761719 140.300781 "/>
</g>
</g>
</svg>
