<?xml version="1.0" encoding="UTF-8"?>
<svg xmlns="http://www.w3.org/2000/svg" xmlns:xlink="http://www.w3.org/1999/xlink" width="900pt" height="899.99999pt" viewBox="0 0 900 899.99999" version="1.2">
<defs>
<clipPath id="clip1">
  <path d="M 281.332031 147.457031 L 618.832031 147.457031 L 618.832031 752.707031 L 281.332031 752.707031 Z M 281.332031 147.457031 "/>
</clipPath>
</defs>
<g id="surface1">
<g clip-path="url(#clip1)" clip-rule="nonzero">
<path style=" stroke:none;fill-rule:nonzero;fill:rgb(0%,0%,0%);fill-opacity:1;" d="M 371.066406 540.25 L 371.066406 400.582031 L 529.285156 360.09375 L 529.285156 499.761719 Z M 553.382812 458.832031 L 553.382812 353.925781 L 609.738281 339.5 C 614.640625 339.5 618.617188 335.527344 618.617188 330.625 L 618.617188 228.832031 C 618.617188 223.929688 614.640625 219.957031 609.738281 219.957031 L 553.382812 234.375 L 553.382812 154.152344 C 553.382812 147.496094 547.984375 147.585938 541.332031 147.585938 C 534.671875 147.585938 529.285156 147.496094 529.285156 154.152344 L 529.285156 240.546875 L 371.066406 281.035156 L 371.066406 170.132812 C 371.066406 163.476562 365.667969 163.566406 359.007812 163.566406 C 352.355469 163.566406 346.960938 163.476562 346.960938 170.132812 L 346.960938 287.203125 L 290.605469 301.628906 C 285.699219 301.628906 281.726562 305.601562 281.726562 310.503906 L 281.726562 412.292969 C 281.726562 417.199219 285.699219 421.171875 290.605469 421.171875 L 346.960938 406.753906 L 346.960938 546.421875 L 290.605469 560.84375 C 285.699219 560.84375 281.726562 564.816406 281.726562 569.71875 L 281.726562 671.515625 C 281.726562 676.414062 285.699219 680.394531 290.605469 680.394531 L 346.960938 665.96875 L 346.960938 746.820312 C 346.960938 746.980469 346.972656 747.132812 346.980469 747.285156 C 346.980469 747.285156 347.410156 752.765625 359.007812 752.765625 C 370.609375 752.765625 371.066406 752.050781 371.066406 747.457031 L 371.066406 659.796875 L 529.285156 619.308594 L 529.285156 730.839844 C 529.285156 731 529.296875 731.152344 529.304688 731.304688 C 529.304688 731.304688 529.734375 736.785156 541.332031 736.785156 C 552.929688 736.785156 553.382812 736.070312 553.382812 731.480469 L 553.382812 613.140625 L 609.738281 598.722656 C 614.640625 598.722656 618.617188 594.742188 618.617188 589.847656 L 618.617188 488.050781 C 618.617188 483.144531 614.640625 479.171875 609.738281 479.171875 L 553.382812 493.597656 L 553.382812 458.832031 "/>
</g>
</g>
</svg>
