<?xml version="1.0" encoding="UTF-8"?>
<svg xmlns="http://www.w3.org/2000/svg" xmlns:xlink="http://www.w3.org/1999/xlink" width="900pt" height="899.99999pt" viewBox="0 0 900 899.99999" version="1.2">
<defs>
<clipPath id="clip1">
  <path d="M 372.027344 221 L 528 221 L 528 679 L 372.027344 679 Z M 372.027344 221 "/>
</clipPath>
</defs>
<g id="surface1">
<g clip-path="url(#clip1)" clip-rule="nonzero">
<path style=" stroke:none;fill-rule:nonzero;fill:rgb(0%,0%,0%);fill-opacity:1;" d="M 521.496094 221.109375 C 518.828125 220.847656 516.335938 222.414062 514.921875 224.679688 C 488.878906 268.269531 452.46875 276.636719 431.210938 277.410156 C 438.414062 271.605469 443.023438 262.714844 443.023438 252.746094 C 443.023438 235.253906 428.851562 221.078125 411.371094 221.078125 C 393.886719 221.078125 379.71875 235.253906 379.71875 252.746094 C 379.71875 270.234375 393.886719 284.40625 411.371094 284.40625 C 412.21875 284.40625 413.054688 284.367188 413.886719 284.300781 C 413.902344 284.304688 464.417969 299.667969 512.144531 244.886719 L 506.199219 306.804688 C 480.238281 348.847656 444.535156 357.015625 423.574219 357.773438 C 430.769531 351.96875 435.386719 343.078125 435.386719 333.109375 C 435.386719 315.617188 421.214844 301.441406 403.730469 301.441406 C 386.246094 301.441406 372.074219 315.617188 372.074219 333.109375 C 372.074219 350.597656 386.246094 364.773438 403.730469 364.773438 C 404.574219 364.773438 405.414062 364.730469 406.246094 364.664062 C 406.261719 364.667969 456.71875 380.015625 504.421875 325.34375 L 471.371094 669.707031 C 471.367188 669.800781 471.367188 669.886719 471.359375 669.976562 C 471.359375 669.976562 470.808594 678.253906 477.542969 678.90625 C 484.273438 679.558594 485.074219 674.097656 485.332031 671.4375 L 509.195312 420.421875 L 510.558594 406.421875 L 527.753906 229.40625 C 528.132812 225.539062 525.359375 221.480469 521.496094 221.109375 "/>
</g>
</g>
</svg>
