<?xml version="1.0" encoding="UTF-8"?>
<svg xmlns="http://www.w3.org/2000/svg" xmlns:xlink="http://www.w3.org/1999/xlink" width="900pt" height="899.99999pt" viewBox="0 0 900 899.99999" version="1.2">
<g id="surface1">
<path style=" stroke:none;fill-rule:nonzero;fill:rgb(0%,0%,0%);fill-opacity:1;" d="M 572.855469 425.769531 C 526.566406 367.050781 469.644531 312.164062 458.984375 225.875 C 467.179688 230.113281 501.027344 249.222656 543 294.480469 C 585.351562 340.144531 604.007812 390.644531 588.886719 449.199219 C 583.953125 440.839844 578.566406 432.996094 572.855469 425.769531 Z M 592.699219 455.90625 C 625.960938 388.015625 599.90625 323.335938 572.855469 283.261719 C 517.136719 200.703125 457.070312 193.65625 457.070312 90.121094 L 441.625 90.121094 L 441.625 664.539062 C 418.097656 641.902344 372.566406 641.335938 332.472656 665.171875 C 286.894531 692.273438 265.609375 740.617188 284.917969 773.140625 C 304.226562 805.667969 356.828125 810.066406 402.40625 782.964844 C 436.449219 762.734375 456.90625 730.644531 457.070312 702.148438 L 457.070312 392.335938 C 457.070312 392.335938 494.679688 393.796875 543 445.871094 C 608.910156 516.949219 617.832031 587.488281 577.625 677.238281 C 634.382812 597.898438 624.957031 515.179688 592.699219 455.90625 "/>
</g>
</svg>
