<?xml version="1.0" encoding="UTF-8"?>
<svg xmlns="http://www.w3.org/2000/svg" xmlns:xlink="http://www.w3.org/1999/xlink" width="900pt" height="899.99999pt" viewBox="0 0 900 899.99999" version="1.2">
<defs>
<clipPath id="clip1">
  <path d="M 45.613281 401.707031 L 853.84375 401.707031 L 853.84375 498.457031 L 45.613281 498.457031 Z M 45.613281 401.707031 "/>
</clipPath>
</defs>
<g id="surface1">
<g clip-path="url(#clip1)" clip-rule="nonzero">
<path style=" stroke:none;fill-rule:nonzero;fill:rgb(0%,0%,0%);fill-opacity:1;" d="M 845.886719 425.273438 L 840.226562 425.273438 L 840.226562 404.71875 L 845.886719 404.71875 Z M 845.886719 448.835938 L 840.226562 448.835938 L 840.226562 428.285156 L 845.886719 428.285156 Z M 845.886719 472.398438 L 840.226562 472.398438 L 840.226562 451.847656 L 845.886719 451.847656 Z M 845.886719 495.625 L 840.226562 495.625 L 840.226562 475.414062 L 845.886719 475.414062 Z M 837.417969 425.273438 L 48.441406 425.273438 L 48.429688 404.71875 L 837.40625 404.71875 Z M 837.417969 448.835938 L 48.441406 448.835938 L 48.429688 428.285156 L 837.40625 428.285156 Z M 837.417969 472.398438 L 48.441406 472.398438 L 48.429688 451.847656 L 837.40625 451.847656 Z M 837.417969 495.625 L 48.441406 495.625 L 48.429688 475.414062 L 837.40625 475.414062 Z M 853.558594 401.707031 L 45.632812 401.707031 L 45.632812 498.628906 L 45.886719 498.628906 L 45.886719 498.632812 L 853.546875 498.632812 L 853.546875 498.628906 L 853.8125 498.628906 L 853.8125 401.707031 L 853.546875 401.707031 "/>
</g>
</g>
</svg>
