<?xml version="1.0" encoding="UTF-8"?>
<svg xmlns="http://www.w3.org/2000/svg" xmlns:xlink="http://www.w3.org/1999/xlink" width="900pt" height="899.99999pt" viewBox="0 0 900 899.99999" version="1.2">
<defs>
<clipPath id="clip1">
  <path d="M 262 116.410156 L 622 116.410156 L 622 749 L 262 749 Z M 262 116.410156 "/>
</clipPath>
</defs>
<g id="surface1">
<g clip-path="url(#clip1)" clip-rule="nonzero">
<path style=" stroke:none;fill-rule:nonzero;fill:rgb(0%,0%,0%);fill-opacity:1;" d="M 497.242188 284.5625 L 497.242188 233.117188 C 557.949219 298.082031 578.921875 319.71875 595.183594 349.722656 C 595.183594 349.722656 597.148438 353.5 597.679688 354.507812 C 597.792969 354.703125 597.875 354.871094 597.960938 355.039062 C 613.15625 387.285156 618.511719 422.609375 614.308594 452.949219 C 597.316406 397.5 551.976562 349.777344 497.242188 284.5625 Z M 597.679688 273.367188 C 597.792969 273.535156 597.875 273.703125 597.960938 273.898438 C 613.15625 306.113281 618.511719 341.4375 614.308594 371.75 C 597.316406 316.332031 551.949219 268.578125 497.242188 203.390625 L 497.242188 151.945312 C 557.949219 216.9375 578.921875 238.546875 595.183594 268.550781 C 595.183594 268.550781 597.148438 272.332031 597.679688 273.367188 Z M 616.605469 379.921875 C 617.953125 374.324219 619.046875 368.585938 619.832031 362.765625 C 632.308594 270.089844 573.257812 212.933594 495.925781 120.652344 C 494.328125 118.078125 491.523438 116.34375 488.242188 116.34375 C 483.277344 116.34375 479.269531 120.34375 479.269531 125.300781 L 479.269531 605.71875 C 455.015625 580.050781 409.367188 568.40625 361.53125 578.988281 C 297.574219 593.121094 253.914062 641.65625 264.066406 687.394531 C 274.214844 733.128906 334.304688 758.738281 398.292969 744.574219 C 455.605469 731.925781 496.570312 691.648438 497.1875 650.503906 L 497.242188 650.503906 L 497.242188 314.285156 C 557.949219 379.25 578.921875 400.886719 595.183594 430.863281 C 595.183594 430.894531 597.148438 434.671875 597.679688 435.679688 C 597.792969 435.847656 597.875 436.042969 597.960938 436.210938 C 626.925781 497.703125 620.308594 570.449219 579.371094 598.46875 C 605.167969 582.851562 615.710938 555.027344 619.832031 525.105469 C 622.972656 501.929688 621.597656 480.96875 616.605469 461.121094 C 617.980469 455.523438 619.046875 449.785156 619.832031 443.9375 C 622.972656 420.734375 621.597656 399.769531 616.605469 379.921875 "/>
</g>
</g>
</svg>
