<?xml version="1.0" encoding="UTF-8"?>
<svg xmlns="http://www.w3.org/2000/svg" xmlns:xlink="http://www.w3.org/1999/xlink" width="900pt" height="899.99999pt" viewBox="0 0 900 899.99999" version="1.2">
<defs>
<clipPath id="clip1">
  <path d="M 291.5 160.503906 L 608.75 160.503906 L 608.75 439 L 291.5 439 Z M 291.5 160.503906 "/>
</clipPath>
<clipPath id="clip2">
  <path d="M 291.5 311 L 608.75 311 L 608.75 589 L 291.5 589 Z M 291.5 311 "/>
</clipPath>
<clipPath id="clip3">
  <path d="M 291.5 461 L 608.75 461 L 608.75 739 L 291.5 739 Z M 291.5 461 "/>
</clipPath>
</defs>
<g id="surface1">
<g clip-path="url(#clip1)" clip-rule="nonzero">
<path style=" stroke:none;fill-rule:nonzero;fill:rgb(0%,0%,0%);fill-opacity:1;" d="M 291.566406 328.292969 L 291.566406 438.371094 L 608.839844 266.648438 L 608.839844 160.972656 L 291.566406 328.292969 "/>
</g>
<g clip-path="url(#clip2)" clip-rule="nonzero">
<path style=" stroke:none;fill-rule:nonzero;fill:rgb(0%,0%,0%);fill-opacity:1;" d="M 291.566406 588.625 L 608.839844 416.90625 L 608.839844 311.230469 L 291.566406 478.550781 L 291.566406 588.625 "/>
</g>
<g clip-path="url(#clip3)" clip-rule="nonzero">
<path style=" stroke:none;fill-rule:nonzero;fill:rgb(0%,0%,0%);fill-opacity:1;" d="M 291.566406 738.882812 L 608.839844 567.160156 L 608.839844 461.484375 L 291.566406 628.804688 L 291.566406 738.882812 "/>
</g>
</g>
</svg>
