<?xml version="1.0" encoding="UTF-8"?>
<svg xmlns="http://www.w3.org/2000/svg" xmlns:xlink="http://www.w3.org/1999/xlink" width="900pt" height="899.99999pt" viewBox="0 0 900 899.99999" version="1.2">
<defs>
<clipPath id="clip1">
  <path d="M 145 226.644531 L 764.667969 226.644531 L 764.667969 666 L 145 666 Z M 145 226.644531 "/>
</clipPath>
</defs>
<g id="surface1">
<g clip-path="url(#clip1)" clip-rule="nonzero">
<path style=" stroke:none;fill-rule:nonzero;fill:rgb(0%,0%,0%);fill-opacity:1;" d="M 762.425781 260.453125 L 764.15625 226.640625 L 285.140625 226.640625 L 284.492188 241.582031 L 284.484375 241.582031 L 270.972656 551.429688 C 252.722656 532.09375 212.96875 537.828125 180.945312 564.8125 C 148.1875 592.414062 135.941406 631.785156 153.582031 652.746094 C 171.226562 673.707031 212.089844 668.320312 244.847656 640.714844 C 266.710938 622.289062 279.425781 598.625 280.222656 578.691406 L 280.289062 578.691406 L 293.867188 267.488281 L 516.890625 267.488281 L 504.515625 551.359375 C 486.238281 532.101562 446.535156 537.859375 414.550781 564.8125 C 381.792969 592.414062 369.542969 631.785156 387.1875 652.746094 C 404.828125 673.707031 445.691406 668.320312 478.453125 640.714844 C 500.3125 622.292969 513.027344 598.628906 513.824219 578.691406 L 513.832031 578.691406 L 527.398438 267.488281 L 751.613281 267.488281 L 739.222656 551.613281 C 721.046875 532.054688 681.148438 537.746094 649.03125 564.8125 C 616.273438 592.414062 604.019531 631.785156 621.660156 652.746094 C 639.308594 673.707031 680.164062 668.320312 712.925781 640.714844 C 734.792969 622.289062 747.503906 598.617188 748.304688 578.679688 L 748.550781 578.691406 L 762.425781 260.453125 "/>
</g>
</g>
</svg>
