<?xml version="1.0" encoding="UTF-8"?>
<svg xmlns="http://www.w3.org/2000/svg" xmlns:xlink="http://www.w3.org/1999/xlink" width="900pt" height="899.99999pt" viewBox="0 0 900 899.99999" version="1.2">
<defs>
<clipPath id="clip1">
  <path d="M 177.292969 345.347656 L 722.542969 345.347656 L 722.542969 554.597656 L 177.292969 554.597656 Z M 177.292969 345.347656 "/>
</clipPath>
</defs>
<g id="surface1">
<g clip-path="url(#clip1)" clip-rule="nonzero">
<path style=" stroke:none;fill-rule:nonzero;fill:rgb(0%,0%,0%);fill-opacity:1;" d="M 565.574219 463.605469 L 565.574219 545.96875 C 565.574219 550.675781 561.757812 554.488281 557.054688 554.488281 L 342.785156 554.488281 C 338.078125 554.488281 334.265625 550.675781 334.265625 545.96875 L 334.265625 454.519531 L 185.800781 454.519531 C 181.089844 454.519531 177.28125 450.703125 177.28125 446 L 177.28125 353.976562 C 177.28125 349.273438 181.089844 345.457031 185.800781 345.457031 L 714.039062 345.457031 C 718.75 345.457031 722.5625 349.273438 722.5625 353.976562 L 722.5625 446 C 722.5625 450.703125 718.75 454.519531 714.039062 454.519531 L 574.867188 454.519531 C 574.867188 454.519531 565.574219 456.644531 565.574219 463.605469 "/>
</g>
</g>
</svg>
