<?xml version="1.0" encoding="UTF-8"?>
<svg xmlns="http://www.w3.org/2000/svg" xmlns:xlink="http://www.w3.org/1999/xlink" width="900pt" height="899.99999pt" viewBox="0 0 900 899.99999" version="1.2">
<defs>
<clipPath id="clip1">
  <path d="M 171.816406 251.101562 L 728.316406 251.101562 L 728.316406 648 L 171.816406 648 Z M 171.816406 251.101562 "/>
</clipPath>
</defs>
<g id="surface1">
<g clip-path="url(#clip1)" clip-rule="nonzero">
<path style=" stroke:none;fill-rule:nonzero;fill:rgb(0%,0%,0%);fill-opacity:1;" d="M 492.472656 612.847656 C 428.121094 629.441406 357.082031 569.824219 333.800781 479.675781 C 310.488281 389.542969 343.769531 303.011719 408.121094 286.433594 C 472.445312 269.839844 543.484375 329.441406 566.792969 419.589844 C 590.078125 509.734375 556.796875 596.253906 492.472656 612.847656 Z M 450.28125 251.386719 C 296.585938 251.386719 171.980469 340.15625 171.980469 449.648438 C 171.980469 559.152344 296.585938 647.925781 450.28125 647.925781 C 604.007812 647.925781 728.597656 559.152344 728.597656 449.648438 C 728.597656 340.15625 604.007812 251.386719 450.28125 251.386719 "/>
</g>
</g>
</svg>
